# Blender 4.2.1 LTS
# www.blender.org
mtllib cube.mtl
o Cube
v -1.000000 1.000000 -1.000000
v -1.000000 -1.000000 -1.000000
v -1.000000 -1.000000 1.000000
v -1.000000 1.000000 1.000000
v 1.000000 0.999999 -1.000000
v 1.000000 -1.000001 -0.999999
v 1.000000 -1.000000 1.000000
v 1.000000 1.000000 1.000000
vn -1.0000 -0.0000 -0.0000
vn 1.0000 -0.0000 -0.0000
vn -0.0000 -0.0000 -1.0000
vn -0.0000 -1.0000 -0.0000
vn -0.0000 -0.0000 1.0000
vn -0.0000 1.0000 -0.0000
vt 1.000000 0.000000
vt 1.000000 1.000000
vt 0.000000 1.000000
vt 1.000000 0.000001
vt 0.000000 0.000000
vt 0.999999 1.000000
s 0
usemtl Material.002
f 1/1/1 2/2/1 3/3/1
f 5/4/2 8/5/2 6/6/2
f 1/5/3 5/4/3 2/3/3
f 2/1/4 6/6/4 3/5/4
f 3/3/5 7/2/5 8/1/5
f 5/2/6 1/1/6 4/5/6
f 4/5/1 1/1/1 3/3/1
f 8/5/2 7/3/2 6/6/2
f 5/4/3 6/2/3 2/3/3
f 6/6/4 7/3/4 3/5/4
f 4/5/5 3/3/5 8/1/5
f 8/3/6 5/2/6 4/5/6
